
        <svg xmlns="http://www.w3.org/2000/svg" xmlns:xlink="http://www.w3.org/1999/xlink" version="1.1" width="3181.8181818181824" 
        height="900.0000000000001" viewBox="0 0 3181.8181818181824 900.0000000000001">
			
			<g transform="scale(9.090909090909092) translate(10, 10)">
				<defs id="SvgjsDefs2118"></defs><g id="SvgjsG2119" featureKey="symbolGroupContainer" transform="matrix(1,0,0,1,0,0)" fill="#5782bb"><rect xmlns="http://www.w3.org/2000/svg" width="110" height="79" rx="10" ry="10"></rect></g><g id="SvgjsG2120" featureKey="symbolFeature-0" transform="matrix(0.8758207980138857,0,0,0.8758207980138857,11.20895675831451,-4.5125584518343125)" fill="#fffeec"><g xmlns="http://www.w3.org/2000/svg" transform="translate(0,-952.36218)"><path d="m 32.065299,980.35063 c 1.50182,0.79783 2.77767,2.42636 3.84315,3.66079 l -1.5935,1.59574 c -0.36828,0.37677 -0.36093,1.05517 0.0154,1.42385 0.37635,0.36867 1.05381,0.36112 1.42186,-0.0158 l 1.46852,-1.47058 c 1.01391,1.20307 2.05599,2.45767 3.28074,3.87982 l -2.18716,2.19022 c -0.36827,0.37677 -0.36092,1.05517 0.0154,1.42385 0.37635,0.36868 1.0538,0.36113 1.42186,-0.0158 l 2.09342,-2.09636 c 1.05247,1.18802 1.96821,2.19176 2.93704,3.22276 l -2.46836,2.47182 c -0.36828,0.37676 -0.36093,1.05516 0.0154,1.42381 0.37636,0.3687 1.05381,0.36121 1.42186,-0.016 l 2.46837,-2.4718 c 0.85257,0.85218 1.71057,1.70625 2.62459,2.5344 l -2.53086,2.53445 c -0.36827,0.3768 -0.36092,1.0552 0.0154,1.4238 0.37635,0.3687 1.05381,0.3612 1.42186,-0.016 l 2.59334,-2.59695 c 0.93659,0.79565 1.91079,1.55075 2.9058,2.28415 -0.64928,1.0604 -1.18358,2.2766 -1.74973,3.4104 -0.23722,0.4751 -0.006,1.1079 0.46868,1.3455 0.47443,0.2375 1.10632,0.037 1.34354,-0.4381 l 1.5935,-3.1602 c 0.97434,0.654 1.97403,1.2825 2.99953,1.8461 l -0.84362,3.3792 c -0.17328,0.5238 0.17848,1.1584 0.71409,1.2881 0.53561,0.1298 1.1381,-0.2735 1.22311,-0.8188 l 0.71864,-2.9098 c 1.08168,0.514 2.17807,0.9622 3.31198,1.3454 l 0,3.3479 c -0.007,0.529 0.47156,1.0155 0.99985,1.0155 0.52828,0 1.00731,-0.4865 0.99984,-1.0155 l 0,-2.7847 c 2.15238,0.5301 4.03691,0.7318 5.99906,0.8448 l 0,3.9424 c -10.79095,-0.1414 -17.99418,-2.5921 -24.12123,-7.6658 -6.0592,-5.01756 -11.08975,-12.76324 -17.21606,-23.52928 0.83646,-0.25324 1.67034,-0.55712 2.37471,-0.81363 z m -17.153581,1.1264 c 5.15517,1.13855 9.18228,1.02613 12.77926,0.21902 6.27256,11.05572 11.46519,19.14735 17.96594,24.53055 6.48879,5.3732 14.266001,7.9884 25.371041,8.1351 l 0,1.7834 c -22.93817,1.1761 -43.15038,0.4698 -60.99047,-0.7822 1.94878,-9.8429 3.86969,-27.44087 4.874229,-33.88587 z m 9.123581,7.8535 c -4.393901,0 -7.99875,3.6099 -7.99875,8.00995 0,4.40012 3.604849,8.01002 7.99875,8.01002 4.3939,0 7.99875,-3.6099 7.99875,-8.01002 0,-4.40005 -3.60485,-8.00995 -7.99875,-8.00995 z m 0,4.00498 c 2.23248,0 3.99938,1.76936 3.99938,4.00497 0,2.23558 -1.7669,4.00502 -3.99938,4.00502 -2.232481,0 -3.999381,-1.76944 -3.999381,-4.00502 0,-2.23561 1.7669,-4.00497 3.999381,-4.00497 z m 48.992349,15.23769 c 5.821931,0.5081 9.988494,1.3152 12.623034,2.8786 0.69128,0.4102 1.29974,0.8782 1.81222,1.408 -3.627741,1.341 -8.387923,2.3707 -14.435254,3.0663 z m 15.622564,5.9762 c 0.821939,1.5432 1.24597,3.5109 1.3123,6.1326 -0.634461,0.3087 -1.865031,0.7513 -3.718171,1.1577 -6.123793,1.1935 -12.486073,2.167 -18.340893,2.5344 l -0.718639,-5.851 c 9.337109,-0.6783 16.391163,-1.9991 21.465402,-3.9737 z m -78.612723,2.8786 c 23.5362,1.6195 41.62196,2.0419 55.14764,1.2202 l 0.71863,5.7259 -37.7441,0 c -7.6494,0 -13.30116,-0.9328 -18.12217,-1.8773 z" style="text-indent:0;text-transform:none;direction:ltr;block-progression:tb;baseline-shift:baseline;color:;enable-background:accumulate;" fill="#fffeec" fill-opacity="1" stroke="none" marker="none" visibility="visible" display="inline" overflow="visible"></path></g></g><g id="SvgjsG2121" featureKey="nameFeature-0" transform="matrix(1.585380419876886,0,0,1.585380419876886,131.52196601952758,-0.5562160702530399)" fill="#111111"><path d="M14.16 17.52 c-3.48 1.92 -7.08 5.72 -6.4 8.8 c1.04 1.32 2.24 2.44 2.68 4.04 c0.88 1.36 1.68 2.68 1.16 4.6 c-0.8 3.12 -3.28 6.76 -6.56 7.4 c-0.8 0.12 -1.48 -0.4 -2 -1.2 c-2.04 0.2 -3.64 -3 -4 -5.44 c2.8 -0.92 4.56 -2.08 5.08 -4 c0.52 -1.76 -0.92 -2.32 -1.92 -3.32 c-1.16 -1.08 -1.76 -2.32 -1.92 -3.92 c-0.48 -5.48 5.28 -12.52 10.88 -16.56 c0.76 0.52 1.52 1.68 2.04 3 c1.4 1 2.68 5.64 0.96 6.6 z M12.08 15.36 c1.44 -0.8 0.4 -5.12 -0.92 -6.2 c-5.04 3.68 -10.32 10.36 -9.88 15.24 c0.16 1.92 1.04 2.8 2.36 3.96 c1.04 0.88 2 1.72 1.44 3.64 c-0.64 2.36 -2.76 3.64 -4.92 4.4 c0.28 1.56 1.4 4.04 2.84 3.76 c3.16 -0.6 5.6 -4.16 6.44 -7.24 c0.88 -3.44 -2.36 -5.16 -3.64 -7.84 c-1.56 -3.32 2.52 -7.68 6.28 -9.72 z M32.16 11.2 c-2.84 5.44 -5.24 22.48 -5.8 28.52 c-0.6 1.48 -2.96 2.64 -4.44 2.28 c-0.12 -0.44 -0.24 -0.88 -0.36 -1.36 c-0.76 0.2 -1.56 0.2 -2.28 0.04 c-0.52 -1.8 -0.96 -3.88 -1.28 -6.04 c-0.24 1.92 -0.4 3.84 -0.32 5.8 c-0.96 1.24 -4.44 2.6 -4.4 1.28 l0 -0.92 c-1.6 0.52 -2.84 0 -2.8 -1.08 c0.16 -9.04 2.24 -18.24 3.96 -27.08 c0.4 -2.08 5.68 -3.92 7.2 -2.48 c-0.08 0.76 -0.12 1.48 -0.16 2.2 c0.64 -0.08 1.12 -0.08 1.32 0.12 c-0.16 1.76 -0.2 3.44 -0.12 5.12 c0.44 -2.56 1 -5.12 1.88 -7.6 c1.48 -1.2 3.84 -1.76 6.84 -1.52 c-0.4 0.8 -0.8 1.72 -1.16 2.8 c0.64 -0.12 1.32 -0.16 1.92 -0.08 z M29.84 9.36 c-1.56 -0.04 -3.44 0.48 -4.44 1.24 c-1.56 4.36 -1.8 9.08 -2.88 13.56 c-0.16 0.52 -0.96 0.8 -1.04 0.24 c-0.76 -4.4 -1.28 -9 -0.88 -13.84 c-0.8 -0.4 -4.92 0.88 -5.2 2.28 c-0.72 3.72 -1.64 8.32 -2.44 13.08 c-0.76 4.72 -1.4 9.6 -1.48 13.8 c0 0.56 0.72 0.4 1.56 0.12 c0.96 -0.32 1.96 -0.92 2.44 -1.48 c-0.2 -4.36 0.84 -8.64 1.44 -12.92 c0.08 -0.72 0.88 -0.96 0.96 -0.16 c0.44 4.4 1.04 10.6 2.2 14.56 c1.4 0.24 3.52 -0.84 4.08 -2.16 c0.56 -5.96 2.88 -22.52 5.68 -28.32 z M44.36 11.04 c0.12 1.04 -0.76 4.32 -2.04 4.88 c-1.04 0.44 -2.84 0.24 -4.12 0.8 c-0.32 0.68 -0.72 1.92 -1.04 3.24 c0.72 -0.16 1.44 -0.28 2.4 -0.28 c0.28 1.08 0.2 2.12 -0.08 3 c0.52 -0.12 1.04 -0.2 1.48 -0.2 c0.4 1.76 -0.92 3.92 -2.08 4.72 c-0.64 0.44 -2.2 0.72 -3 1.04 c-0.36 1.2 -0.64 3.12 -0.88 4.88 l2.76 -0.84 c0.24 1.24 0.2 2.4 0 3.44 c0.48 -0.16 0.92 -0.32 1.4 -0.44 c0.4 1.92 -0.72 4.32 -1.56 5 c-1.56 1.24 -4.8 1.96 -6.68 1.56 c-0.48 -0.08 -0.92 -0.56 -1.04 -1.08 c-0.4 -0.04 -0.8 -0.08 -1.12 -0.12 c-0.96 -0.2 -1.8 -1.24 -1.72 -2.4 c0.64 -7.08 1.88 -13.56 3.36 -20.24 c0.16 -0.76 0.64 -1.28 1.16 -1.72 c-0.28 0.08 -0.6 0.2 -0.88 0.28 c-0.52 0.16 -0.96 0.24 -2 0.2 c0.08 -2.44 1.28 -5.08 2.48 -6.24 c1.44 -1.44 9.44 -2.72 11.96 -2.12 c0.04 0.64 0 1.6 -0.24 2.56 c0.64 0 1.16 0 1.48 0.08 z M42.2 9.2 c-2 -0.32 -9.24 0.96 -10.36 2.04 c-0.96 0.92 -1.96 3.12 -2.12 4.56 c1.04 -0.2 2.12 -0.8 3.16 -0.88 c0.96 -0.08 0.76 0.68 0.32 1.16 c-0.6 0.64 -1.6 1.24 -1.8 2.12 c-1.48 6.64 -2.72 13.08 -3.36 20.12 c-0.04 0.64 0.44 1.24 0.92 1.32 c1.84 0.36 5 -0.32 6.52 -1.52 c0.76 -0.6 1.76 -2.8 1.52 -4.56 c-1.4 0.4 -3.16 1.04 -4.56 1.04 c0.16 -1.8 0.6 -6.24 1.28 -8.52 c0.8 -0.32 2.4 -0.6 3.04 -1.04 c1.08 -0.76 2.32 -2.72 2.04 -4.36 c-0.6 0.04 -1.28 0.2 -2 0.4 c-0.8 0.24 -1.56 0.48 -2.44 0.6 c0.16 -2.6 1.04 -5.76 1.68 -7.12 c1.08 -0.44 2.2 -0.44 3.36 -0.6 c0.32 -0.04 0.6 -0.12 0.84 -0.24 c1.12 -0.48 1.96 -3.36 1.96 -4.52 z M55.400000000000006 11.760000000000002 c-1.28 9.48 -2.4 19.6 -1.84 29 c-0.72 1 -4.16 2 -4.44 0.88 c-0.08 -0.28 -0.12 -0.64 -0.12 -1.08 c-1.28 0.16 -2.48 0 -2.64 -0.72 c-0.2 -0.84 -0.24 -2.2 -0.16 -3.64 c-0.16 0.04 -0.32 0.12 -0.48 0.2 c-0.4 0.96 -0.84 3 -0.8 4.56 c-1.28 0.84 -3.56 2.08 -4.32 1.4 c-0.2 -0.16 -0.24 -0.72 -0.16 -1.4 c-1.04 0.32 -1.92 0.4 -2.4 0 c-0.92 -0.8 0 -4.32 0.24 -5.44 c1.2 -5.6 3 -11.8 4.8 -17.28 c0.12 -0.48 0.76 -1 1.16 -1.32 c-0.68 0.24 -1.56 0.56 -3.08 1.16 c0.16 -2.52 1.4 -5.92 2.44 -6.84 c1.8 -1.56 6.88 -2.76 10.68 -2.16 c-0.12 0.88 -0.24 1.72 -0.32 2.56 c0.48 0 1 0.04 1.44 0.12 z M53.160000000000004 9.920000000000002 c-2.84 -0.4 -7.44 0.8 -8.88 2.08 c-0.72 0.6 -1.76 3.28 -2 4.56 c0.48 -0.16 3.84 -1.6 3.92 -0.32 c0.04 0.6 -2.04 1.92 -2.2 2.32 c-1.76 5.44 -3.52 11.6 -4.72 17.2 c-0.2 0.76 -0.44 1.8 -0.56 2.72 c-0.12 0.84 -0.24 1.56 0 1.72 c0.72 0.64 2.76 -0.56 4 -1.36 c0 -1.56 0.4 -3.56 0.84 -4.56 c1.08 -0.56 2.44 -0.96 3.88 -0.88 c-0.28 2.48 -0.4 5.08 -0.12 6.2 c0.28 1 3.28 0 4.04 -0.92 c-0.56 -9.32 0.52 -19.32 1.8 -28.76 z M48.68 17.72 c-0.28 3.52 -0.76 7.52 -1.2 11.04 c-0.76 0.08 -2.12 0.32 -3.08 0.68 c0.8 -3.92 2.16 -8.16 3.72 -11.72 c0.12 -0.28 0.6 -0.36 0.56 0 z M72.52 11.280000000000001 c-1.08 1.84 -2.44 4.12 -3.32 6 c-0.72 1.52 -4.28 8 -5.32 10.52 c0.84 4.64 1.28 7.76 3.08 12.12 c-1.16 2.08 -3.36 2.52 -4 1.68 c-0.12 -0.16 -0.24 -0.44 -0.36 -0.88 c-0.88 0.24 -1.72 0.08 -2.28 -0.64 c-0.32 -0.44 -0.68 -1.72 -1 -3.16 c-0.16 1.2 -0.32 2.36 -0.44 3.88 c-0.76 0.88 -4.08 2.32 -4.16 0.96 l0 -0.84 c-1.52 0.44 -2.76 0 -2.8 -1.12 c-0.16 -3.36 2.8 -23.4 4.52 -28.76 c0.64 -1.96 3.96 -2.8 6.2 -1.36 c-0.2 0.68 -0.4 1.32 -0.6 1.96 c0.6 -0.04 1.16 0.08 1.6 0.32 c0.72 -1.32 1.32 -2.36 1.64 -2.68 c1.32 -1.4 5.56 -1.96 6.08 0.12 l-0.8 1.4 c1 -0.04 1.88 0.2 1.96 0.48 z M70.28 9.280000000000001 c-0.36 -0.28 -2.96 -0.68 -4.28 0.68 c-0.8 0.88 -4.56 8.52 -6.4 12.36 c-0.44 0.88 -1.16 1.12 -1.08 0.52 c0.72 -4.44 1.6 -8.48 2.96 -12.72 c-1.36 -0.72 -3.72 0.04 -4.08 1.24 c-1.68 5.24 -4.64 25.2 -4.48 28.4 c0.04 0.56 0.76 0.44 1.56 0.16 c0.88 -0.28 1.84 -0.8 2.2 -1.2 c0.16 -2.2 0.44 -3.56 0.64 -5.56 c0.36 -0.76 0.92 -1.96 1.56 -3.12 c0.32 1.32 0.68 3.36 1.08 5.28 c0.44 1.96 0.84 3.76 1.16 4.16 c0.48 0.64 2.48 0.44 3.64 -1.56 c-0.88 -2.16 -1.44 -4.04 -1.88 -5.92 c-0.44 -1.92 -0.76 -3.84 -1.2 -6.2 c1.04 -2.6 4.64 -9.08 5.36 -10.6 c0.84 -1.88 2.2 -4.12 3.24 -5.92 z M87.28 12.719999999999999 c-1.96 9.2 -4.2 17.76 -4.68 28.8 c-1.32 0.08 -3.28 -0.24 -4 -1.4 c-1.32 -0.28 -2.24 -0.84 -2.72 -2.04 c-0.76 -1.92 -0.12 -6.68 0.48 -9.76 l-0.4 0.08 c-0.76 4.52 -1.24 8.6 -1.64 13.12 c-0.8 0.4 -3.4 0 -4 -1.24 c-1.56 -0.24 -3.08 -1.04 -2.92 -2.76 c1.12 -12.36 2.2 -17.72 4.32 -28.12 c2.44 -0.32 4.04 0.48 5.96 1.6 c-0.08 0.56 -0.2 1.12 -0.32 1.64 c0.48 0.24 0.96 0.48 1.44 0.76 c-0.4 2.2 -0.92 4.68 -1.4 7.08 c0.16 -0.04 0.32 -0.08 0.48 -0.08 c0.84 -3.88 1.68 -7.64 2.48 -11.8 c2.64 -0.44 3.8 0.52 5.84 1.72 l-0.32 1.56 c0.48 0.28 0.96 0.56 1.4 0.84 z M85.08 10.8 l-0.84 -0.48 c-0.96 -0.52 -1.92 -1 -3.04 -0.84 c-0.72 3.72 -1.6 7.68 -2.48 11.84 c-0.64 0 -1.28 0.16 -1.96 0.36 c-0.72 0.2 -1.4 0.4 -2.24 0.52 c0.64 -3.64 1.48 -7.44 2.04 -10.68 c-1.32 -0.76 -2.6 -1.36 -4 -1.24 c-2 9.72 -3.04 15.08 -4.16 27.32 c-0.12 1.44 2.72 2.16 3.72 1.8 c0.4 -4.52 0.88 -8.56 1.68 -13.16 c1.28 -0.32 2.92 -0.72 4.16 -0.96 c-0.44 2.44 -0.76 4.96 -1.08 7.24 s-0.44 4.24 -0.08 5.2 c0.48 1.24 2.16 1.64 3.6 1.6 c0.52 -10.92 2.72 -19.4 4.68 -28.52 z M100.67999999999999 11.04 c0.12 1.04 -0.76 4.32 -2.04 4.88 c-1.04 0.44 -2.84 0.24 -4.12 0.8 c-0.32 0.68 -0.72 1.92 -1.04 3.24 c0.72 -0.16 1.44 -0.28 2.4 -0.28 c0.28 1.08 0.2 2.12 -0.08 3 c0.52 -0.12 1.04 -0.2 1.48 -0.2 c0.4 1.76 -0.92 3.92 -2.08 4.72 c-0.64 0.44 -2.2 0.72 -3 1.04 c-0.36 1.2 -0.64 3.12 -0.88 4.88 l2.76 -0.84 c0.24 1.24 0.2 2.4 0 3.44 c0.48 -0.16 0.92 -0.32 1.4 -0.44 c0.4 1.92 -0.72 4.32 -1.56 5 c-1.56 1.24 -4.8 1.96 -6.68 1.56 c-0.48 -0.08 -0.92 -0.56 -1.04 -1.08 c-0.4 -0.04 -0.8 -0.08 -1.12 -0.12 c-0.96 -0.2 -1.8 -1.24 -1.72 -2.4 c0.64 -7.08 1.88 -13.56 3.36 -20.24 c0.16 -0.76 0.64 -1.28 1.16 -1.72 c-0.28 0.08 -0.6 0.2 -0.88 0.28 c-0.52 0.16 -0.96 0.24 -2 0.2 c0.08 -2.44 1.28 -5.08 2.48 -6.24 c1.44 -1.44 9.44 -2.72 11.96 -2.12 c0.04 0.64 0 1.6 -0.24 2.56 c0.64 0 1.16 0 1.48 0.08 z M98.52 9.2 c-2 -0.32 -9.24 0.96 -10.36 2.04 c-0.96 0.92 -1.96 3.12 -2.12 4.56 c1.04 -0.2 2.12 -0.8 3.16 -0.88 c0.96 -0.08 0.76 0.68 0.32 1.16 c-0.6 0.64 -1.6 1.24 -1.8 2.12 c-1.48 6.64 -2.72 13.08 -3.36 20.12 c-0.04 0.64 0.44 1.24 0.92 1.32 c1.84 0.36 5 -0.32 6.52 -1.52 c0.76 -0.6 1.76 -2.8 1.52 -4.56 c-1.4 0.4 -3.16 1.04 -4.56 1.04 c0.16 -1.8 0.6 -6.24 1.28 -8.52 c0.8 -0.32 2.4 -0.6 3.04 -1.04 c1.08 -0.76 2.32 -2.72 2.04 -4.36 c-0.6 0.04 -1.28 0.2 -2 0.4 c-0.8 0.24 -1.56 0.48 -2.44 0.6 c0.16 -2.6 1.04 -5.76 1.68 -7.12 c1.08 -0.44 2.2 -0.44 3.36 -0.6 c0.32 -0.04 0.6 -0.12 0.84 -0.24 c1.12 -0.48 1.96 -3.36 1.96 -4.52 z M111.72 11.760000000000002 c-1.28 9.48 -2.4 19.6 -1.84 29 c-0.72 1 -4.16 2 -4.44 0.88 c-0.08 -0.28 -0.12 -0.64 -0.12 -1.08 c-1.28 0.16 -2.48 0 -2.64 -0.72 c-0.2 -0.84 -0.24 -2.2 -0.16 -3.64 c-0.16 0.04 -0.32 0.12 -0.48 0.2 c-0.4 0.96 -0.84 3 -0.8 4.56 c-1.28 0.84 -3.56 2.08 -4.32 1.4 c-0.2 -0.16 -0.24 -0.72 -0.16 -1.4 c-1.04 0.32 -1.92 0.4 -2.4 0 c-0.92 -0.8 0 -4.32 0.24 -5.44 c1.2 -5.6 3 -11.8 4.8 -17.28 c0.12 -0.48 0.76 -1 1.16 -1.32 c-0.68 0.24 -1.56 0.56 -3.08 1.16 c0.16 -2.52 1.4 -5.92 2.44 -6.84 c1.8 -1.56 6.88 -2.76 10.68 -2.16 c-0.12 0.88 -0.24 1.72 -0.32 2.56 c0.48 0 1 0.04 1.44 0.12 z M109.47999999999999 9.920000000000002 c-2.84 -0.4 -7.44 0.8 -8.88 2.08 c-0.72 0.6 -1.76 3.28 -2 4.56 c0.48 -0.16 3.84 -1.6 3.92 -0.32 c0.04 0.6 -2.04 1.92 -2.2 2.32 c-1.76 5.44 -3.52 11.6 -4.72 17.2 c-0.2 0.76 -0.44 1.8 -0.56 2.72 c-0.12 0.84 -0.24 1.56 0 1.72 c0.72 0.64 2.76 -0.56 4 -1.36 c0 -1.56 0.4 -3.56 0.84 -4.56 c1.08 -0.56 2.44 -0.96 3.88 -0.88 c-0.28 2.48 -0.4 5.08 -0.12 6.2 c0.28 1 3.28 0 4.04 -0.92 c-0.56 -9.32 0.52 -19.32 1.8 -28.76 z M105 17.72 c-0.28 3.52 -0.76 7.52 -1.2 11.04 c-0.76 0.08 -2.12 0.32 -3.08 0.68 c0.8 -3.92 2.16 -8.16 3.72 -11.72 c0.12 -0.28 0.6 -0.36 0.56 0 z M123.96 29.72 c-1.12 4.68 -3.16 10.16 -8.2 12.08 c-1.4 0.56 -3.24 -0.04 -3.72 -0.64 c-0.08 -0.12 -0.16 -0.24 -0.2 -0.4 c-1.04 -0.12 -2 -0.56 -2.4 -1.12 c-0.68 -0.84 -0.6 -2.12 -0.48 -3.16 c0.64 -5.8 1.48 -11.44 2.4 -17.24 c0.12 -0.8 0.44 -1.4 0.76 -1.88 c-0.6 0.2 -1.36 0.44 -2.48 0.72 c0.12 -3.48 1.44 -6.92 3 -8 c2.16 -1.52 6.08 -2.16 8.36 -0.16 c1 0.88 1.72 2.04 2.2 3.32 c3.2 3.92 1.84 11.88 0.76 16.48 z M121.75999999999999 27.64 c1.16 -4.92 2.56 -13.48 -1.4 -16.96 c-1.84 -1.6 -5.16 -1.16 -7.16 0.2 c-1.12 0.8 -2.36 3.64 -2.52 5.88 c0.68 -0.2 2.04 -0.72 2.72 -0.72 c0.24 0 0.6 0.08 0.48 0.52 c-0.12 0.36 -0.56 0.8 -0.8 1.16 c-0.32 0.44 -0.6 0.96 -0.72 1.68 c-0.92 5.76 -1.76 11.4 -2.44 17.2 c-0.08 0.88 -0.16 1.8 0.28 2.44 c0.4 0.52 2.16 1.08 3.48 0.56 c4.92 -1.88 6.96 -7.24 8.08 -11.96 z M119.19999999999999 21 c-0.24 3.48 -0.92 8.2 -3.12 11.56 c-0.56 0.84 -1.04 1.6 -2.28 1.48 c0.64 -6.28 1.2 -12.08 2.76 -17.92 c2.68 -1.6 2.76 3.64 2.64 4.88 z M118.24 20.12 c-0.6 2.76 -1.04 5.48 -1.4 8.28 c0.88 -2.6 1.44 -5.72 1.4 -8.28 z"></path></g>
			</g>
		</svg>
	